<?xml version="1.0" encoding="UTF-8" standalone="no"?>
<svg
   id="Layer_1"
   data-name="Layer 1"
   viewBox="0 0 300 46"
   version="1.1"
   sodipodi:docname="NT-USB_Mini_PL_P_01_web-top-padding-01.svg"
   inkscape:version="1.2.1 (9c6d41e410, 2022-07-14)"
   width="300"
   height="46"
   xmlns:inkscape="http://www.inkscape.org/namespaces/inkscape"
   xmlns:sodipodi="http://sodipodi.sourceforge.net/DTD/sodipodi-0.dtd"
   xmlns="http://www.w3.org/2000/svg"
   xmlns:svg="http://www.w3.org/2000/svg">
  <sodipodi:namedview
     id="namedview27"
     pagecolor="#ffffff"
     bordercolor="#000000"
     borderopacity="0.25"
     inkscape:showpageshadow="2"
     inkscape:pageopacity="0.0"
     inkscape:pagecheckerboard="0"
     inkscape:deskcolor="#d1d1d1"
     showgrid="false"
     inkscape:zoom="1.0851852"
     inkscape:cx="301.79181"
     inkscape:cy="-0.92150171"
     inkscape:window-width="1366"
     inkscape:window-height="699"
     inkscape:window-x="0"
     inkscape:window-y="0"
     inkscape:window-maximized="1"
     inkscape:current-layer="Layer_1" />
  <defs
     id="defs4">
    <style
       id="style2">.cls-1{fill:#231f20;}.cls-2{fill:#ad9970;}</style>
  </defs>
  <path
     class="cls-1"
     d="M 3.0430355,2.3210591 H 15.043035 l 17,27.7699999 h 0.11 V 2.3210591 h 8.81 V 42.321059 h -11.56 l -17.44,-28.47 h -0.11 v 28.47 H 3.0430355 Z"
     id="path6" />
  <path
     class="cls-1"
     d="m 52.123035,10.131059 h -11.4 V 2.3210591 h 31.61 v 7.8099999 h -11.4 v 32.19 h -8.81 z"
     id="path8" />
  <path
     class="cls-1"
     d="m 81.283035,26.861059 h -13.89 v -6.77 h 13.89 z"
     id="path10" />
  <path
     class="cls-1"
     d="m 120.86304,26.891059 a 19,19 0 0 1 -1.07,6.55 14.2,14.2 0 0 1 -3.18,5.19 14.75,14.75 0 0 1 -5.28,3.45 22.21,22.21 0 0 1 -14.620005,0 14.62,14.62 0 0 1 -5.28,-3.45 14.23,14.23 0 0 1 -3.19,-5.19 19,19 0 0 1 -1.07,-6.55 V 2.3210591 h 8.8 V 26.551059 a 9.9,9.9 0 0 0 0.59,3.45 8.31,8.31 0 0 0 1.67,2.74 7.43,7.43 0 0 0 2.569995,1.8 8,8 0 0 0 3.24001,0.65 7.92,7.92 0 0 0 3.22,-0.65 7.59,7.59 0 0 0 2.54,-1.8 8.31,8.31 0 0 0 1.67,-2.74 9.9,9.9 0 0 0 0.59,-3.45 V 2.3210591 h 8.81 z"
     id="path12" />
  <path
     class="cls-1"
     d="m 147.22304,12.101059 a 6.34,6.34 0 0 0 -2.91,-2 10.51,10.51 0 0 0 -3.47,-0.6499999 9,9 0 0 0 -2,0.23 7.54,7.54 0 0 0 -1.91,0.6999999 4,4 0 0 0 -1.47,1.27 3.46,3.46 0 0 0 0.81,4.67 12.74,12.74 0 0 0 3.41,1.63 c 1.38,0.45 2.85,0.91 4.44,1.36 a 18.18,18.18 0 0 1 4.43,1.92 10.43,10.43 0 0 1 3.41,3.33 10.2,10.2 0 0 1 1.36,5.59 12.68,12.68 0 0 1 -1.25,5.81 11.64,11.64 0 0 1 -3.35,4.12 14.25,14.25 0 0 1 -4.93,2.45 22.4,22.4 0 0 1 -13.12,-0.4 18.3,18.3 0 0 1 -6.2,-3.81 l 6.32,-6.91 a 9.06,9.06 0 0 0 3.41,2.79 9.68,9.68 0 0 0 6.44,0.74 7.24,7.24 0 0 0 2,-0.76 4.18,4.18 0 0 0 1.41,-1.3 3.19,3.19 0 0 0 0.54,-1.87 3.39,3.39 0 0 0 -1.38,-2.85 12.73,12.73 0 0 0 -3.48,-1.78 c -1.39,-0.48 -2.89,-1 -4.51,-1.46 a 20.28,20.28 0 0 1 -4.52,-2 11,11 0 0 1 -3.47,-3.27 9.45,9.45 0 0 1 -1.44,-5.33 12,12 0 0 1 1.27,-5.6399999 12.24,12.24 0 0 1 3.39,-4.07 14.61,14.61 0 0 1 4.86,-2.47 19.65,19.65 0 0 1 5.7,-0.82 22.38,22.38 0 0 1 6.55,1 15,15 0 0 1 5.7,3.22 z"
     id="path14" />
  <path
     class="cls-1"
     d="m 158.62304,2.3210591 h 14.9 a 37.94,37.94 0 0 1 5.22,0.36 14.5,14.5 0 0 1 4.72,1.47 9,9 0 0 1 3.38,3.08 9.4,9.4 0 0 1 1.3,5.2499999 8.35,8.35 0 0 1 -1.89,5.61 10.33,10.33 0 0 1 -5,3.19 v 0.12 a 11.33,11.33 0 0 1 3.59,1.1 9.41,9.41 0 0 1 2.76,2.09 8.63,8.63 0 0 1 1.78,3 10.35,10.35 0 0 1 0.62,3.61 9.6,9.6 0 0 1 -1.35,5.28 10.59,10.59 0 0 1 -3.5,3.42 15.52,15.52 0 0 1 -4.83,1.86 25.8,25.8 0 0 1 -5.33,0.56 h -16.37 z m 8.8,15.9999999 h 6.37 a 9,9 0 0 0 2,-0.22 5.41,5.41 0 0 0 1.77,-0.74 3.82,3.82 0 0 0 1.23,-1.35 4.08,4.08 0 0 0 0.48,-2 3.65,3.65 0 0 0 -0.53,-2.06 3.79,3.79 0 0 0 -1.39,-1.28 6.42,6.42 0 0 0 -1.91,-0.64 11.3,11.3 0 0 0 -2.09,-0.1999999 h -6 z m 0,16.54 h 7.91 a 9.55,9.55 0 0 0 2.06,-0.22 5.71,5.71 0 0 0 1.89,-0.79 4.62,4.62 0 0 0 1.38,-1.47 4.23,4.23 0 0 0 0.54,-2.2 3.51,3.51 0 0 0 -0.71,-2.29 4.59,4.59 0 0 0 -1.78,-1.33 9.74,9.74 0 0 0 -2.31,-0.62 18,18 0 0 0 -2.32,-0.17 h -6.66 z"
     id="path16" />
  <path
     class="cls-2"
     d="m 206.13304,11.541059 h 8.35 l 8.21,21.55 8.29,-21.55 h 8.26 v 30.78 h -5.21 v -25.56 h -0.09 l -9.34,25.56 h -3.81 l -9.35,-25.54 h -0.08 v 25.54 h -5.22 z"
     id="path18" />
  <path
     class="cls-2"
     d="m 245.51304,11.541059 h 5.47 v 30.78 h -5.47 z"
     id="path20" />
  <path
     class="cls-2"
     d="m 257.16304,11.541059 h 7.26 l 14.9,22.86 h 0.09 v -22.86 h 5.47 v 30.78 h -6.95 l -15.2,-23.59 h -0.09 v 23.59 h -5.48 z"
     id="path22" />
  <path
     class="cls-2"
     d="m 291.07304,11.541059 h 5.47 v 30.78 h -5.47 z"
     id="path24" />
</svg>
