<?xml version="1.0" encoding="UTF-8" standalone="no"?>
<svg
   id="Layer_1"
   data-name="Layer 1"
   viewBox="0 0 230 46"
   version="1.1"
   sodipodi:docname="PodMic_PL_P_01_web-top-padding-01.svg"
   inkscape:version="1.2.1 (9c6d41e410, 2022-07-14)"
   width="230"
   height="46"
   xmlns:inkscape="http://www.inkscape.org/namespaces/inkscape"
   xmlns:sodipodi="http://sodipodi.sourceforge.net/DTD/sodipodi-0.dtd"
   xmlns="http://www.w3.org/2000/svg"
   xmlns:svg="http://www.w3.org/2000/svg">
  <sodipodi:namedview
     id="namedview19"
     pagecolor="#ffffff"
     bordercolor="#000000"
     borderopacity="0.25"
     inkscape:showpageshadow="2"
     inkscape:pageopacity="0.0"
     inkscape:pagecheckerboard="0"
     inkscape:deskcolor="#d1d1d1"
     showgrid="false"
     inkscape:zoom="1.0851852"
     inkscape:cx="117.49147"
     inkscape:cy="-30.409556"
     inkscape:window-width="1366"
     inkscape:window-height="699"
     inkscape:window-x="0"
     inkscape:window-y="0"
     inkscape:window-maximized="1"
     inkscape:current-layer="Layer_1" />
  <defs
     id="defs4">
    <style
       id="style2">.cls-1{fill:#231f20;}.cls-2{fill:#ad9970;}</style>
  </defs>
  <path
     class="cls-1"
     d="m 3.188715,1.9968335 h 14.68 a 28.2,28.2 0 0 1 5.79,0.56 13.07,13.07 0 0 1 4.76,1.95 9.76,9.76 0 0 1 3.23,3.72 12.88,12.88 0 0 1 1.2,5.9000005 13.62,13.62 0 0 1 -1.15,5.87 9.66,9.66 0 0 1 -3.06,3.79 12.29,12.29 0 0 1 -4.62,2 26.17,26.17 0 0 1 -5.79,0.59 h -6.36 v 15.62 h -8.69 z m 8.68,17.0000005 h 5.79 a 11.39,11.39 0 0 0 2.26,-0.22 6,6 0 0 0 1.95,-0.78 4,4 0 0 0 1.4,-1.46 4.71,4.71 0 0 0 0.53,-2.35 4,4 0 0 0 -0.7,-2.45 4.62,4.62 0 0 0 -1.78,-1.44 7.47,7.47 0 0 0 -2.45,-0.6900005 c -0.9,-0.09 -1.75,-0.14 -2.57,-0.14 h -4.43 z"
     id="path6" />
  <path
     class="cls-1"
     d="m 36.158715,21.996834 a 23.07,23.07 0 0 1 1.58,-8.69 19.21,19.21 0 0 1 4.43,-6.6400005 19.52,19.52 0 0 1 6.7,-4.2 25.43,25.43 0 0 1 17,0 19.48,19.48 0 0 1 6.74,4.2 19.21,19.21 0 0 1 4.43,6.6400005 24.12,24.12 0 0 1 0.08,17.38 19.21,19.21 0 0 1 -4.43,6.64 19.78,19.78 0 0 1 -6.74,4.2 25.43,25.43 0 0 1 -17,0 19.78,19.78 0 0 1 -6.74,-4.2 19.21,19.21 0 0 1 -4.43,-6.64 22.91,22.91 0 0 1 -1.62,-8.69 z m 9,0 a 14.93,14.93 0 0 0 0.86,5.17 11.79,11.79 0 0 0 2.48,4.06 11.41,11.41 0 0 0 3.87,2.68 13.71,13.71 0 0 0 10.08,0 11.41,11.41 0 0 0 3.87,-2.68 12,12 0 0 0 2.55,-4.06 14.93,14.93 0 0 0 0.86,-5.17 15.24,15.24 0 0 0 -0.86,-5.14 11.76,11.76 0 0 0 -2.48,-4.09 11.27,11.27 0 0 0 -3.87,-2.680001 13.71,13.71 0 0 0 -10.08,0 11.27,11.27 0 0 0 -3.87,2.680001 11.76,11.76 0 0 0 -2.48,4.09 15,15 0 0 0 -0.91,5.14 z"
     id="path8" />
  <path
     class="cls-1"
     d="m 84.598715,1.9968335 h 13 a 36.39,36.39 0 0 1 8.999995,1.07 20.25,20.25 0 0 1 7.43,3.47 16.88,16.88 0 0 1 5,6.2400005 21.15,21.15 0 0 1 1.84,9.31 19.33,19.33 0 0 1 -1.81,8.56 18.51,18.51 0 0 1 -4.87,6.2 21.32,21.32 0 0 1 -7.08,3.81 27.3,27.3 0 0 1 -8.409995,1.3 h -14.2 z m 8.69,31.8300005 h 4.51 a 23.51,23.51 0 0 0 5.599995,-0.62 11.73,11.73 0 0 0 4.47,-2 9.8,9.8 0 0 0 3,-3.78 13.73,13.73 0 0 0 1.09,-5.73 11.25,11.25 0 0 0 -1.09,-5.15 10.07,10.07 0 0 0 -2.93,-3.55 12.9,12.9 0 0 0 -4.32,-2.12 19.13,19.13 0 0 0 -5.209995,-0.700001 h -5.12 z"
     id="path10" />
  <path
     class="cls-2"
     d="m 126.86871,1.9968335 h 13.14 l 9.08,26.0800005 h 0.11 l 9.13,-26.0800005 h 13.09 V 41.996834 h -8.69 v -30.67 h -0.11 l -10.36,30.67 h -6.62 l -10,-30.65 h -0.11 v 30.65 h -8.66 z"
     id="path12" />
  <path
     class="cls-2"
     d="m 176.53871,1.9968335 h 8.69 V 41.996834 h -8.69 z"
     id="path14" />
  <path
     class="cls-2"
     d="m 218.91871,12.396834 a 8.52,8.52 0 0 0 -3.15,-2.4000005 10.31,10.31 0 0 0 -4.31,-0.85 11,11 0 0 0 -8.16,3.6800005 12.78,12.78 0 0 0 -2.4,4.09 15.24,15.24 0 0 0 -0.86,5.14 14.93,14.93 0 0 0 0.86,5.17 13.16,13.16 0 0 0 2.37,4.06 10.71,10.71 0 0 0 3.54,2.71 10,10 0 0 0 4.37,1 9.63,9.63 0 0 0 4.69,-1.26 9.37,9.37 0 0 0 3.4,-3.16 l 7.24,5.48 a 15.17,15.17 0 0 1 -6.35,5.25 19.6,19.6 0 0 1 -7.87,1.69 24,24 0 0 1 -8.52,-1.47 19.78,19.78 0 0 1 -6.74,-4.2 19,19 0 0 1 -4.42,-6.64 22.89,22.89 0 0 1 -1.59,-8.69 22.85,22.85 0 0 1 1.59,-8.69 19,19 0 0 1 4.42,-6.6400005 19.48,19.48 0 0 1 6.74,-4.2 24,24 0 0 1 8.52,-1.47000011 19.33,19.33 0 0 1 3.48,0.31000001 18.37,18.37 0 0 1 3.57,1.0000001 15.42,15.42 0 0 1 3.37,1.81 13.28,13.28 0 0 1 2.89,2.76 z"
     id="path16" />
</svg>
