<?xml version="1.0" encoding="UTF-8" standalone="no"?>
<svg
   id="Layer_1"
   data-name="Layer 1"
   viewBox="0 0 445 61"
   version="1.1"
   sodipodi:docname="WIGO_II_PL_P_01_web-top-padding-01.svg"
   width="445"
   height="61"
   inkscape:version="1.2.1 (9c6d41e410, 2022-07-14)"
   xmlns:inkscape="http://www.inkscape.org/namespaces/inkscape"
   xmlns:sodipodi="http://sodipodi.sourceforge.net/DTD/sodipodi-0.dtd"
   xmlns="http://www.w3.org/2000/svg"
   xmlns:svg="http://www.w3.org/2000/svg">
  <sodipodi:namedview
     id="namedview35"
     pagecolor="#ffffff"
     bordercolor="#000000"
     borderopacity="0.25"
     inkscape:showpageshadow="2"
     inkscape:pageopacity="0.0"
     inkscape:pagecheckerboard="0"
     inkscape:deskcolor="#d1d1d1"
     showgrid="false"
     inkscape:zoom="1.0851852"
     inkscape:cx="339.57338"
     inkscape:cy="48.83959"
     inkscape:window-width="1366"
     inkscape:window-height="699"
     inkscape:window-x="0"
     inkscape:window-y="0"
     inkscape:window-maximized="1"
     inkscape:current-layer="Layer_1" />
  <defs
     id="defs4">
    <style
       id="style2">.cls-1{fill:#010101;}.cls-2{fill:#a99975;}.cls-3{fill:#fff;}</style>
  </defs>
  <path
     class="cls-1"
     d="m 2.5557967,14.087513 h 8.9999993 l 6,24.120001 h 0.11 l 7.86,-24.120001 h 7.7 l 7.81,24.760001 h 0.1 l 6.32,-24.760001 h 8.45 l -11,37.620001 h -7.4 l -8.29,-26 h -0.1 l -8.29,26 h -7.12 z"
     id="path6" />
  <path
     class="cls-1"
     d="m 59.495796,14.087513 h 8.29 v 37.620001 h -8.29 z"
     id="path8" />
  <path
     class="cls-1"
     d="m 75.325796,14.087513 h 14.58 a 25.88,25.88 0 0 1 5.45,0.56 12.85,12.85 0 0 1 4.51,1.86 9.3,9.3 0 0 1 3.040004,3.51 11.87,11.87 0 0 1 1.14,5.490001 11.06,11.06 0 0 1 -2.07,6.78 9.34,9.34 0 0 1 -6.070004,3.53 l 9.590004,15.89 h -9.930004 l -7.87,-15 h -4.09 v 15 h -8.28 z m 8.28,15.620001 h 4.89 c 0.74,0 1.53,0 2.36,-0.08 a 7.42,7.42 0 0 0 2.26,-0.48 4,4 0 0 0 1.68,-1.25 3.8,3.8 0 0 0 0.66,-2.39 4,4 0 0 0 -0.59,-2.28 3.85,3.85 0 0 0 -1.48,-1.3 6.51,6.51 0 0 0 -2.07,-0.62 18,18 0 0 0 -2.29,-0.15 h -5.42 z"
     id="path10" />
  <path
     class="cls-1"
     d="m 110.0658,14.087513 h 25.55 v 7.62 h -17.27 v 7.000001 h 16.31 v 7.65 h -16.31 v 7.65 h 18.22 v 7.7 h -26.5 z"
     id="path12" />
  <path
     class="cls-1"
     d="m 143.5258,14.087513 h 8.29 v 30.000001 h 15.35 v 7.62 h -23.64 z"
     id="path14" />
  <path
     class="cls-1"
     d="m 172.0458,14.087513 h 25.55 v 7.62 h -17.26 v 7.000001 h 16.31 v 7.65 h -16.31 v 7.65 h 18.22 v 7.7 h -26.51 z"
     id="path16" />
  <path
     class="cls-1"
     d="m 223.7858,23.277514 a 5.84,5.84 0 0 0 -2.74,-1.88 9.72,9.72 0 0 0 -3.26,-0.61 8.63,8.63 0 0 0 -1.86,0.21 7.13,7.13 0 0 0 -1.81,0.66 3.91,3.91 0 0 0 -1.38,1.2 3,3 0 0 0 -0.53,1.8 3,3 0 0 0 1.27,2.61 12.38,12.38 0 0 0 3.22,1.54 c 1.29,0.42 2.68,0.85 4.17,1.27 a 17.44,17.44 0 0 1 4.17,1.81 9.89,9.89 0 0 1 3.21,3.13 9.57,9.57 0 0 1 1.28,5.26 12.08,12.08 0 0 1 -1.17,5.43 11.11,11.11 0 0 1 -3.16,3.88 13.32,13.32 0 0 1 -4.62,2.28 20.21,20.21 0 0 1 -5.55,0.75 19.92,19.92 0 0 1 -6.8,-1.12 17.1,17.1 0 0 1 -5.85,-3.61 l 5.9,-6.48 a 8.65,8.65 0 0 0 3.21,2.63 9.2,9.2 0 0 0 4,0.93 9,9 0 0 0 2.05,-0.24 6.67,6.67 0 0 0 1.86,-0.72 4,4 0 0 0 1.33,-1.22 3.1,3.1 0 0 0 0.5,-1.75 3.15,3.15 0 0 0 -1.3,-2.68 11.91,11.91 0 0 0 -3.26,-1.65 c -1.31,-0.46 -2.73,-0.92 -4.25,-1.38 a 19.08,19.08 0 0 1 -4.25,-1.86 10.1,10.1 0 0 1 -3.26,-3.07 8.8,8.8 0 0 1 -1.31,-5 11.3,11.3 0 0 1 1.2,-5.310001 11.59,11.59 0 0 1 3.19,-3.82 13.78,13.78 0 0 1 4.59,-2.31 18.6,18.6 0 0 1 5.37,-0.77 21.21,21.21 0 0 1 6.16,0.9 14.12,14.12 0 0 1 5.36,3 z"
     id="path18" />
  <path
     class="cls-1"
     d="m 254.2758,23.277514 a 5.84,5.84 0 0 0 -2.74,-1.88 9.72,9.72 0 0 0 -3.26,-0.61 8.56,8.56 0 0 0 -1.86,0.21 7.13,7.13 0 0 0 -1.81,0.66 3.83,3.83 0 0 0 -1.38,1.2 3,3 0 0 0 -0.53,1.8 3,3 0 0 0 1.27,2.61 12.23,12.23 0 0 0 3.22,1.54 c 1.29,0.42 2.68,0.85 4.17,1.27 a 17.61,17.61 0 0 1 4.17,1.81 9.89,9.89 0 0 1 3.21,3.13 9.57,9.57 0 0 1 1.28,5.26 12.08,12.08 0 0 1 -1.17,5.43 11.22,11.22 0 0 1 -3.16,3.88 13.32,13.32 0 0 1 -4.62,2.28 20.23,20.23 0 0 1 -5.56,0.75 19.9,19.9 0 0 1 -6.79,-1.12 17.1,17.1 0 0 1 -5.81,-3.57 l 5.9,-6.48 a 8.65,8.65 0 0 0 3.21,2.63 9,9 0 0 0 6.06,0.69 6.67,6.67 0 0 0 1.86,-0.72 4,4 0 0 0 1.32,-1.22 3,3 0 0 0 0.51,-1.75 3.15,3.15 0 0 0 -1.3,-2.68 11.91,11.91 0 0 0 -3.31,-1.69 c -1.31,-0.46 -2.73,-0.92 -4.25,-1.38 a 19.08,19.08 0 0 1 -4.25,-1.86 10.1,10.1 0 0 1 -3.26,-3.08 8.8,8.8 0 0 1 -1.31,-5 11.3,11.3 0 0 1 1.2,-5.310001 11.59,11.59 0 0 1 3.19,-3.82 13.68,13.68 0 0 1 4.59,-2.31 18.6,18.6 0 0 1 5.37,-0.77 21.21,21.21 0 0 1 6.16,0.9 14.12,14.12 0 0 1 5.36,3 z"
     id="path20" />
  <path
     class="cls-1"
     d="m 430.1158,3.197513 h -2 V 2.1375135 h 5.24 V 3.197513 h -2 v 5.56 h -1.26 z m 4.52,-1.0599995 h 1.91 l 1.78,5.0799995 h 0.05 l 1.78,-5.0799995 h 1.92 V 8.757513 h -1.26 v -5.53 0 l -1.91,5.53 h -1 l -2,-5.53 v 0 5.53 h -1.25 z"
     id="path22" />
  <rect
     class="cls-2"
     x="268.90579"
     y="1.707514"
     width="97.290001"
     height="58"
     rx="12.19"
     id="rect24" />
  <path
     class="cls-3"
     d="m 313.3958,48.767514 a 31.52,31.52 0 0 1 -8.08,2.94 40.25,40.25 0 0 1 -8.58,0.9 24.78,24.78 0 0 1 -8.59,-1.45 19.8,19.8 0 0 1 -6.79,-4.19 19,19 0 0 1 -4.45,-6.62 22.54,22.54 0 0 1 -1.6,-8.64 22.52,22.52 0 0 1 1.6,-8.63 19.11,19.11 0 0 1 4.46,-6.600001 19.78,19.78 0 0 1 6.79,-4.18 24.55,24.55 0 0 1 8.59,-1.45 31.3,31.3 0 0 1 8.78,1.15 17.22,17.22 0 0 1 7,3.94 l -6.14,6.770001 a 12.25,12.25 0 0 0 -4,-2.800001 14.3,14.3 0 0 0 -5.61,-1 12.92,12.92 0 0 0 -5.08,1 11.18,11.18 0 0 0 -3.89,2.660001 11.53,11.53 0 0 0 -2.51,4.07 15.67,15.67 0 0 0 0,10.24 11.67,11.67 0 0 0 2.51,4 11.32,11.32 0 0 0 3.89,2.66 12.92,12.92 0 0 0 5.08,1 16.76,16.76 0 0 0 4.94,-0.65 18.55,18.55 0 0 0 3.31,-1.32 v -6.48 h -7.12 v -8.08 h 15.54 z"
     id="path26" />
  <path
     class="cls-3"
     d="m 316.9058,31.707514 a 22.52,22.52 0 0 1 1.59,-8.63 19.11,19.11 0 0 1 4.46,-6.600001 19.78,19.78 0 0 1 6.79,-4.18 26,26 0 0 1 17.17,0 19.69,19.69 0 0 1 6.79,4.18 18.84,18.84 0 0 1 4.46,6.600001 22.34,22.34 0 0 1 1.6,8.63 22.35,22.35 0 0 1 -1.6,8.64 18.71,18.71 0 0 1 -4.46,6.59 19.71,19.71 0 0 1 -6.8,4.19 26.14,26.14 0 0 1 -17.17,0 19.8,19.8 0 0 1 -6.83,-4.19 19,19 0 0 1 -4.46,-6.59 22.54,22.54 0 0 1 -1.54,-8.64 m 9.09,0 a 14.59,14.59 0 0 0 0.86,5.14 11.58,11.58 0 0 0 2.51,4 11.32,11.32 0 0 0 3.89,2.66 13.89,13.89 0 0 0 10.15,0 11.5,11.5 0 0 0 3.91,-2.66 11.83,11.83 0 0 0 2.49,-4 15.5,15.5 0 0 0 0,-10.24 11.68,11.68 0 0 0 -2.49,-4.07 11.5,11.5 0 0 0 -3.91,-2.660001 13.89,13.89 0 0 0 -10.15,0 11.32,11.32 0 0 0 -3.89,2.660001 11.44,11.44 0 0 0 -2.51,4.07 14.6,14.6 0 0 0 -0.86,5.1"
     id="path28" />
  <path
     class="cls-2"
     d="m 389.9058,1.7075136 h 5.87 V 59.707514 h -17.42 V 13.347513 a 11.65,11.65 0 0 1 11.55,-11.6399994 z"
     id="path30" />
  <path
     class="cls-2"
     d="m 411.4658,59.707514 h -5.87 V 1.7075136 h 17.45 V 48.067514 a 11.65,11.65 0 0 1 -11.58,11.64 z"
     id="path32" />
</svg>
